<svg width="148" height="25" viewBox="0 0 148 25" fill="none" xmlns="http://www.w3.org/2000/svg">
<path d="M44.6885 19.7917H47.7446V13.8479L53.159 5.11044H49.6689L46.2166 10.9792L42.8019 5.11044H39.2741L44.6885 13.9792V19.7917Z" fill="white"/>
<path d="M62.0954 15.5917C62.1143 15.3667 62.1331 15.0104 62.1331 14.5417C62.1331 13.0604 61.6615 11.8417 60.7371 10.9229C59.8127 10.0042 58.6053 9.53544 57.1149 9.53544C55.6623 9.53544 54.3983 10.0417 53.3419 11.0729C52.3043 12.1042 51.7761 13.3229 51.7761 14.7667C51.7761 16.3042 52.3043 17.5604 53.3608 18.5542C54.4361 19.5292 55.7378 20.0167 57.3036 20.0167C59.3599 20.0167 60.7937 19.2667 61.6426 17.7479L59.5108 16.3604C59.0581 17.0917 58.1525 17.5604 57.2659 17.5604C56.0019 17.5604 54.9454 16.8104 54.7756 15.5917H62.0954ZM54.8511 13.6604C54.9077 13.2667 55.1341 12.8729 55.5303 12.4979C55.9264 12.1042 56.4358 11.9167 57.0395 11.9167C58.3789 11.9167 59.1147 12.7792 59.1901 13.6604H54.8511Z" fill="white"/>
<path d="M67.1881 4.51044H64.2263V19.7917H67.1881V4.51044Z" fill="white"/>
<path d="M72.8625 4.51044H69.9006V19.7917H72.8625V4.51044Z" fill="white"/>
<path d="M74.9524 14.8042C74.9524 16.3042 75.4806 17.5417 76.5371 18.5354C77.5935 19.5292 78.8952 20.0167 80.4422 20.0167C81.9703 20.0167 83.272 19.5104 84.3473 18.5167C85.4226 17.5042 85.9509 16.2479 85.9509 14.7479C85.9509 13.2667 85.4226 12.0479 84.3662 11.0542C83.3097 10.0604 82.008 9.55419 80.4799 9.55419C78.9518 9.55419 77.6313 10.0604 76.5559 11.0729C75.4806 12.0667 74.9524 13.3229 74.9524 14.8042ZM77.9708 14.7667C77.9708 14.0354 78.2161 13.4167 78.6877 12.9479C79.1593 12.4604 79.7442 12.2167 80.4422 12.2167C81.1402 12.2167 81.7439 12.4604 82.2155 12.9479C82.6872 13.4167 82.9324 14.0354 82.9324 14.7667C82.9324 16.2667 81.8759 17.3354 80.4611 17.3354C79.763 17.3354 79.1593 17.0917 78.6877 16.6229C78.2161 16.1354 77.9708 15.5167 77.9708 14.7667Z" fill="white"/>
<path d="M98.3667 16.0417L96.4802 9.77919H93.7636L91.8771 15.9854H91.8582L90.0471 9.77919H87.0287L90.1603 19.7917H93.009L95.0842 13.3979H95.103L97.1593 19.7917H100.046L103.215 9.77919H100.272L98.3667 16.0417Z" fill="white"/>
<path d="M118.04 15.0105C117.72 15.8542 117.21 16.698 116.286 17.6542C115.361 18.6105 113.852 19.248 112.117 19.248C110.249 19.248 108.702 18.573 107.476 17.2417C106.268 15.9105 105.665 14.298 105.665 12.4042C105.665 10.5292 106.268 8.93545 107.476 7.62295C108.702 6.31045 110.23 5.65421 112.098 5.65421C113.758 5.65421 115.192 6.21671 116.116 7.09796C117.04 7.94171 117.644 8.86046 118.002 9.85421L118.682 9.53546C118.304 8.42921 117.606 7.39796 116.55 6.47921C115.512 5.56045 113.928 4.9417 112.135 4.9417C110.041 4.9417 108.306 5.67296 106.929 7.13546C105.551 8.57921 104.872 10.3605 104.872 12.4605C104.872 14.5792 105.551 16.3417 106.91 17.7855C108.268 19.2292 110.004 19.9417 112.098 19.9417C113.928 19.9417 115.569 19.3042 116.606 18.348C117.663 17.3917 118.342 16.3792 118.719 15.3292L118.04 15.0105Z" fill="white"/>
<path d="M128.584 19.7917V13.4917C128.584 11.0167 127.075 9.61046 124.735 9.61046C122.792 9.61046 121.415 10.5292 120.736 11.973L121.396 12.348C122.094 10.9792 123.207 10.3042 124.754 10.3042C126.735 10.3042 127.829 11.523 127.829 13.548V14.2417H124.566C123.509 14.2417 122.585 14.4855 121.792 14.973C121.019 15.4417 120.623 16.1542 120.623 17.1105C120.623 18.0292 120.943 18.723 121.585 19.2292C122.226 19.7167 123.037 19.9605 124 19.9605C125.603 19.9605 127.075 19.098 127.829 17.5792V19.7917H128.584ZM127.848 15.6855C127.848 16.7542 127.471 17.6355 126.735 18.2917C125.999 18.948 125.094 19.2667 124.018 19.2667C122.49 19.2667 121.396 18.498 121.396 17.0917C121.396 16.3605 121.717 15.8167 122.358 15.4605C123.019 15.1042 123.754 14.9167 124.603 14.9167H127.848V15.6855Z" fill="white"/>
<path d="M136.515 9.64796C135.685 9.64796 134.912 9.91046 134.214 10.4355C133.516 10.9417 133.025 11.598 132.761 12.3855V9.77921H132.025V19.7917H132.761V14.748C132.761 13.5292 133.101 12.5167 133.761 11.673C134.421 10.8292 135.365 10.398 136.553 10.398H136.704V9.66671C136.666 9.64796 136.61 9.64796 136.515 9.64796Z" fill="white"/>
<path d="M147.143 19.7917V4.52921H146.426V12.4605C145.69 10.7542 144.124 9.61046 142.162 9.61046C140.748 9.61046 139.597 10.1167 138.672 11.1292C137.748 12.123 137.295 13.3417 137.295 14.7667C137.295 16.1917 137.748 17.4105 138.635 18.423C139.54 19.4355 140.71 19.9417 142.162 19.9417C143.125 19.9417 143.992 19.6792 144.747 19.1355C145.52 18.5917 146.068 17.898 146.426 17.0542V19.7917H147.143ZM142.2 19.2292C140.974 19.2292 139.974 18.798 139.201 17.9542C138.427 17.0917 138.05 16.023 138.05 14.748V14.7292C138.05 13.473 138.427 12.423 139.201 11.5792C139.974 10.7355 140.974 10.323 142.2 10.323C143.445 10.323 144.464 10.773 145.256 11.6542C146.049 12.5355 146.445 13.5667 146.445 14.748V14.8042C146.445 16.0042 146.049 17.0355 145.237 17.9167C144.445 18.798 143.426 19.2292 142.2 19.2292Z" fill="white"/>
<path d="M2.67436 5.92162C2.77487 5.35507 3.31846 4.97677 3.8885 5.07667L23.3093 8.48014C23.8793 8.58004 24.2599 9.12031 24.1594 9.68687L21.667 23.7355C21.5665 24.3021 21.0229 24.6804 20.4529 24.5805L1.03212 21.177C0.462076 21.0771 0.0814513 20.5369 0.181965 19.9703L2.67436 5.92162Z" fill="#614423"/>
<path d="M8.41172 3.06219C8.60969 2.52159 9.21112 2.24285 9.75505 2.43961L28.2861 9.14315C28.83 9.33991 29.1105 9.93766 28.9125 10.4783L24.0035 23.8834C23.8055 24.424 23.2041 24.7027 22.6601 24.5059L4.12906 17.8024C3.58514 17.6056 3.30469 17.0079 3.50266 16.4673L8.41172 3.06219Z" fill="#B6821F"/>
<path d="M15.0371 0.902109C15.3265 0.403888 15.9675 0.233185 16.4688 0.520833L33.5471 10.3207C34.0484 10.6084 34.2202 11.2455 33.9308 11.7437L26.7542 24.0979C26.4648 24.5961 25.8238 24.7668 25.3225 24.4792L8.24418 14.6793C7.74289 14.3916 7.57114 13.7545 7.86056 13.2563L15.0371 0.902109Z" fill="#FCB41C"/>
</svg>
